<?xml version="1.0" encoding="utf-8"?>
<!-- Generator: Adobe Illustrator 23.0.6, SVG Export Plug-In . SVG Version: 6.00 Build 0)  -->
<svg version="1.1" id="图层_1" xmlns="http://www.w3.org/2000/svg" xmlns:xlink="http://www.w3.org/1999/xlink" x="0px" y="0px"
	 viewBox="0 0 263.5 235.9" style="enable-background:new 0 0 263.5 235.9;" xml:space="preserve">
<style type="text/css">
	.st0{fill:#E36C61;}
	.st1{clip-path:url(#SVGID_2_);}
	.st2{opacity:0.5;fill-rule:evenodd;clip-rule:evenodd;fill:url(#SVGID_3_);enable-background:new    ;}
	.st3{fill-rule:evenodd;clip-rule:evenodd;fill:#1E9E57;}
	.st4{fill-rule:evenodd;clip-rule:evenodd;fill:#9DBA4E;}
	.st5{fill-rule:evenodd;clip-rule:evenodd;fill:#65B051;}
	.st6{fill-rule:evenodd;clip-rule:evenodd;fill:#13844D;}
	.st7{fill-rule:evenodd;clip-rule:evenodd;fill:#FFFFFF;}
	.st8{fill-rule:evenodd;clip-rule:evenodd;fill:#020002;}
	.st9{fill-rule:evenodd;clip-rule:evenodd;fill:#0F6B44;}
	.st10{fill-rule:evenodd;clip-rule:evenodd;fill:#1F4533;}
</style>
<title>crocodile</title>
<g>
	<g id="Layer_1">
		<circle class="st0" cx="133.1" cy="118.7" r="106.2"/>
		<g>
			<defs>
				<circle id="SVGID_1_" cx="133.1" cy="118.7" r="106.2"/>
			</defs>
			<clipPath id="SVGID_2_">
				<use xlink:href="#SVGID_1_"  style="overflow:visible;"/>
			</clipPath>
			<g class="st1">
				
					<linearGradient id="SVGID_3_" gradientUnits="userSpaceOnUse" x1="143.4167" y1="124.2168" x2="227.1667" y2="-21.6932" gradientTransform="matrix(1 0 0 -1 0 238)">
					<stop  offset="0" style="stop-color:#1E120D"/>
					<stop  offset="0.41" style="stop-color:#5A514D;stop-opacity:0.7"/>
					<stop  offset="1" style="stop-color:#E7E6E6;stop-opacity:0"/>
				</linearGradient>
				<path class="st2" d="M134.9,64.5l35.2,46l49.9,5.7l74.8,74.9c0,0-6.7,53.7-71.3,60.8s-76.1-4.5-76.1-4.5l-75.9-72.1l-1.7-21.1
					l-18.1-28.4L74,99.5L68.6,71l-5.9-6.1L80,54.3l21.2,17.5l19.4-11.6L134.9,64.5z"/>
			</g>
		</g>
		<path class="st3" d="M66.5,169.4c1.5-11.8,2.1-23.3,0.7-34.3l51-1.3c0.3,8,8.4,23.2,16.9,41.1C128.5,184.2,84.5,194.1,66.5,169.4z
			"/>
		<path class="st4" d="M79.7,143.6c0.9,7.6,0.5,12.8-0.3,20.8c-0.9,10.8,8.7,13.9,11,14.4c19.2,4.1,43.3-1.2,39.5-9.9
			c-5.8-12.8-9.5-20.5-9.7-26.5L79.7,143.6L79.7,143.6z"/>
		<path class="st5" d="M211.7,110c19.3,17.3,5.6,27.8-11.4,32.6c-31.8,9-175.8,13.2-150.6-43.7c4.7-10.5,22.6,4,17.4-10.1
			c-2.5-6.6-1.2-23.4,6.4-25.8c18.7-5.8,18.9,13.8,32.9,0.7c2.8-2.6,17.8-6.9,20.2,9.6C133.2,118.1,200,99.5,211.7,110z"/>
		<path class="st3" d="M215.2,111.7c19.3,17.3,5.6,27.8-11.3,32.6c-31.8,9-175.8,13.2-150.6-43.7c4.7-10.5,22.6,4,17.4-10.1
			c-2.5-6.6-1.2-23.4,6.4-25.8c18.7-5.8,18.9,13.8,32.9,0.7c2.8-2.6,17.8-6.9,20.2,9.6C136.7,119.9,203.5,101.2,215.2,111.7z"/>
		<path class="st6" d="M74.2,103.3c-8.5-2.5-7.5-17-3-23.6c10.6-15.6,30.2-3.5,32.8-2.9c1.1,0.2,5.9-6.2,11.8-8.2
			c18.6-6.4,35.4,20.1,12.6,31.5L74.2,103.3z"/>
		<path class="st7" d="M118.7,71.9c8-1.7,15.7,2.8,17.2,10s-3.7,14.4-11.7,16.1s-15.7-2.8-17.2-10S110.7,73.6,118.7,71.9z"/>
		<path class="st8" d="M119.2,81.5c4.5-0.2,8.4,3.3,8.6,7.8c0.2,4.5-3.3,8.4-7.8,8.6c-4.5,0.2-8.4-3.3-8.6-7.8
			C111.2,85.6,114.6,81.7,119.2,81.5z"/>
		<path class="st7" d="M115.6,86c0.1-1,1-1.8,2-1.8c1,0.1,1.8,1,1.8,2c-0.1,1-1,1.8-2,1.8c0,0,0,0,0,0C116.3,87.9,115.5,87,115.6,86
			z"/>
		<path class="st9" d="M139,90.7c1,14.6-31.1,16.5-35.1,0.4C108.8,92.9,128.8,96.3,139,90.7z"/>
		<path class="st10" d="M122.2,58.3c2.4,0.2,11.4,3.8,12.8,6.4c1.9,3.5-13-2.6-13.8-3.1C118.3,59.9,121.8,58.2,122.2,58.3z"/>
		<path class="st7" d="M88.2,75.2c-8.8-0.6-16.3,5.4-16.8,13.3s6.2,14.8,14.9,15.3s16.3-5.4,16.9-13.3S97,75.7,88.2,75.2z"/>
		<path class="st8" d="M89.1,85.4c-4.9,0.5-8.4,4.8-8,9.6s4.8,8.4,9.6,8c4.9-0.5,8.4-4.7,8-9.6C98.3,88.6,94,85,89.1,85.4
			C89.1,85.4,89.1,85.4,89.1,85.4z"/>
		<path class="st7" d="M93.7,89.7c-0.3-1.1-1.3-1.7-2.4-1.5c-1.1,0.3-1.7,1.3-1.5,2.4c0.2,1.1,1.3,1.7,2.4,1.5
			C93.2,91.9,93.9,90.8,93.7,89.7C93.7,89.7,93.7,89.7,93.7,89.7z"/>
		<path class="st9" d="M105.9,92.3c4.7,13.9-25.8,23.9-33.8,9.3C77.3,102.2,97.5,100.4,105.9,92.3z"/>
		<path class="st10" d="M77.3,53c-3.1,0.9-13.8,7.7-14.9,11.3c-1.5,5,16-6.5,17-7.4C82.7,54.2,77.7,52.9,77.3,53z"/>
		<path class="st10" d="M199.6,137.1c-2.5,0-4.6-3.4-4.6-7.6c0-4.2,2.1-7.6,4.6-7.6s4.6,3.4,4.6,7.6
			C204.2,133.6,202.1,137.1,199.6,137.1z"/>
		<path class="st10" d="M213.5,120.7c-2.1,0.6-2.9,3.8-1.9,7.2c1,3.4,3.4,5.6,5.5,5s2.9-3.8,1.9-7.2
			C218,122.4,215.6,120.1,213.5,120.7z"/>
		<path class="st7" d="M71.2,124l-3.8-7c-2.8,3.8-2.2,1.7-3.2,7.3c-2.1,11.6,6.5,6,6.2,7c-1.8,6.3,3.7,8.9,7.3,5.5
			c0-0.1-0.3,9.1,7.2,4.9c1.8-1,1.2-1.6,1.6,0.5c0.1,0.8,0.5,1.5,1,2.2c1.2,1.2,7.6,3.5,7.7,0.6c0-0.2,5.6,6.8,9.3,1.6
			c0.6-0.9,0.3,3.2,4.3,3.2c5,0,0.3-4.6,5.4-0.2c0.5,0.4,4-1.3,4-3.4l-26-6.3L71.2,124z"/>
		<path class="st10" d="M64.2,114.1c0.6,5.4,5.8,15.3,20.5,22.9c9.5,4.9,23.1,9,42,10.2c-6.2-1.7-28.6-7-40.5-13.2
			c-13.4-7-18.2-15.6-18.7-20.3L64.2,114.1z"/>
		<path class="st10" d="M55.3,115.2c3,8.4,21.4,1.5,19.6-8.4C72.6,109.1,62.4,115.9,55.3,115.2z"/>
	</g>
</g>
</svg>
