<?xml version="1.0" encoding="utf-8"?>
<!-- Generator: Adobe Illustrator 23.0.6, SVG Export Plug-In . SVG Version: 6.00 Build 0)  -->
<svg version="1.1" id="图层_1" xmlns="http://www.w3.org/2000/svg" xmlns:xlink="http://www.w3.org/1999/xlink" x="0px" y="0px"
	 viewBox="0 0 252.7 251.2" style="enable-background:new 0 0 252.7 251.2;" xml:space="preserve">
<style type="text/css">
	.st0{fill:#FAD021;}
	.st1{fill:#3F6375;}
	.st2{clip-path:url(#SVGID_2_);}
	.st3{opacity:0.5;fill-rule:evenodd;clip-rule:evenodd;fill:url(#SVGID_3_);enable-background:new    ;}
	.st4{fill-rule:evenodd;clip-rule:evenodd;fill:#AE84A3;}
	.st5{clip-path:url(#SVGID_5_);}
	.st6{fill-rule:evenodd;clip-rule:evenodd;fill:#8C6080;}
	.st7{fill-rule:evenodd;clip-rule:evenodd;fill:#DBBCD2;}
	.st8{fill-rule:evenodd;clip-rule:evenodd;fill:#FFFFFF;}
	.st9{fill-rule:evenodd;clip-rule:evenodd;fill:#020002;}
	.st10{fill-rule:evenodd;clip-rule:evenodd;fill:#A8A7AC;}
	.st11{fill-rule:evenodd;clip-rule:evenodd;fill:#F4CC4B;}
	.st12{clip-path:url(#SVGID_7_);}
	.st13{fill-rule:evenodd;clip-rule:evenodd;fill:#D6AD2B;}
	.st14{fill-rule:evenodd;clip-rule:evenodd;fill:#711012;}
	.st15{fill-rule:evenodd;clip-rule:evenodd;fill:#A3701E;}
</style>
<title>bird</title>
<g>
	<g id="Layer_1">
		<circle class="st0" cx="126.4" cy="123.2" r="106.2"/>
		<circle class="st1" cx="126.4" cy="123.2" r="106.2"/>
		<g>
			<defs>
				<circle id="SVGID_1_" cx="126.4" cy="123.2" r="106.2"/>
			</defs>
			<clipPath id="SVGID_2_">
				<use xlink:href="#SVGID_1_"  style="overflow:visible;"/>
			</clipPath>
			<g class="st2">
				
					<linearGradient id="SVGID_3_" gradientUnits="userSpaceOnUse" x1="137.035" y1="127.1948" x2="215.445" y2="-9.3952" gradientTransform="matrix(1 0 0 -1 0 254)">
					<stop  offset="0" style="stop-color:#1E120D"/>
					<stop  offset="0.41" style="stop-color:#5A514D;stop-opacity:0.7"/>
					<stop  offset="1" style="stop-color:#E7E6E6;stop-opacity:0"/>
				</linearGradient>
				<path class="st3" d="M169.2,81.5L148.4,60l14.7,5.8l101.2,100.4c0,0,17.1,83-47.5,90.2c-64.6,7.2-87-19.4-87-19.4l-74-69.2
					l27.7-33.2l11.7-51.7L83.6,67.7l18.9-7.5l20.3,18.9L169.2,81.5z"/>
			</g>
		</g>
		<path class="st4" d="M144.3,86.3c4,6.8,16.7,12.7,18.2,21.2c2.3,13.8-0.3,26.5,2.5,40.1c8.2,39.1,16.8,48.8,21,58.8
			c1.5,3.6-4.3,4.9-5.1,4.6c-5.4-1.3-34.6-74.1-39.7-87.3c-2.8-7.4-9.3-13.6-7.1-21.4C135.9,95.6,142.9,90.3,144.3,86.3z"/>
		<g>
			<defs>
				<path id="SVGID_4_" d="M144.3,86.3c4,6.8,16.7,12.7,18.2,21.2c2.3,13.8-0.3,26.5,2.5,40.1c8.2,39.1,16.8,48.8,21,58.8
					c1.5,3.6-4.3,4.9-5.1,4.6c-5.4-1.3-34.6-74.1-39.7-87.3c-2.8-7.4-9.3-13.6-7.1-21.4C135.9,95.6,142.9,90.3,144.3,86.3z"/>
			</defs>
			<clipPath id="SVGID_5_">
				<use xlink:href="#SVGID_4_"  style="overflow:visible;"/>
			</clipPath>
			<g class="st5">
				<path class="st6" d="M165.6,119.5l3.9,13.2c-7,4.1-15.1,19.2-18.1,26.4l-6.7-26.2L165.6,119.5z"/>
			</g>
		</g>
		<path class="st4" d="M99.3,128.3c-3.7-7.5-21.4-21.6-8.1-41.4c13.5-20.2,82-23.1,88.2,6.4c2.5,11.8-0.7,20.6-9,27.1
			c-11.8,9.2-14.6,22.9-32.1,16.3C131.4,134.1,99.3,134.2,99.3,128.3z"/>
		<path class="st7" d="M110.4,113.1c-2.2-4.5-17.2-2.6-20.4-6.9c-2.6-3.6-0.5-9,3.1-14.3c11.8-17.6,68-20,73.6,5.6
			c4.6,21-11.4,39.4-10.4,16.5c0.1-2.3-11.6-9.6-24.7-3.4c-5.8,2.8-10-10.3-17.8-12.4C107,96.3,110.4,115.5,110.4,113.1z"/>
		<path class="st4" d="M139.2,69.2c11.5-1.6,22,5.6,23.4,15.9s-6.7,20.1-18.3,21.7s-22-5.6-23.4-16
			C119.5,80.4,127.7,70.8,139.2,69.2z"/>
		<path class="st4" d="M102.3,69.6c-11-1.5-21.1,5.3-22.4,15.3s6.5,19.3,17.5,20.8s21.1-5.3,22.5-15.3S113.3,71.1,102.3,69.6z"/>
		<path class="st8" d="M137.2,72.9c10.4-1.4,19.9,5,21.1,14.4s-6.1,18.1-16.5,19.6s-19.8-5-21.1-14.4
			C119.4,83.1,126.8,74.3,137.2,72.9z"/>
		<path class="st9" d="M141.9,84.6c5.8,0.1,10.4,4.9,10.3,10.8c-0.1,5.8-4.9,10.4-10.8,10.3c-5.8-0.1-10.4-4.9-10.3-10.8
			C131.3,89.1,136.1,84.5,141.9,84.6C141.9,84.6,141.9,84.6,141.9,84.6z"/>
		<path class="st8" d="M136.9,90.1c0.2-1.3,1.4-2.2,2.8-2.1s2.2,1.4,2.1,2.8s-1.4,2.2-2.8,2.1c0,0,0,0-0.1,0
			C137.6,92.6,136.7,91.4,136.9,90.1z"/>
		<path class="st7" d="M117.6,94.8c-4.4,16.9,30.8,17,41.1,8.2C152.5,104.1,128.3,103.7,117.6,94.8z"/>
		<path class="st8" d="M101.8,72c-9.7-1.3-18.5,4.7-19.7,13.4s5.7,16.9,15.3,18.2c9.7,1.3,18.5-4.7,19.7-13.4S111.4,73.4,101.8,72z"
			/>
		<path class="st9" d="M100.8,83.1c-5.4,0.1-9.7,4.6-9.6,10c0.1,5.4,4.6,9.7,10,9.6c5.4-0.1,9.7-4.6,9.6-10c0,0,0,0,0,0
			C110.7,87.3,106.3,83,100.8,83.1C100.8,83.1,100.8,83.1,100.8,83.1z"/>
		<path class="st8" d="M105.5,88.1c-0.2-1.2-1.3-2.1-2.6-1.9s-2.1,1.3-1.9,2.6c0.2,1.2,1.3,2.1,2.6,1.9
			C104.9,90.5,105.7,89.4,105.5,88.1z"/>
		<path class="st7" d="M118.9,92.1c3.5,15.7-25.8,24.4-32.3,7.7C91.6,100.7,110.5,100.3,118.9,92.1z"/>
		<path class="st10" d="M151.5,56.5c3.1,1.3,13.8,10.1,14.5,14.2c1,5.6-16.3-9.2-17.3-10.2C145.5,56.9,151,56.2,151.5,56.5z"/>
		<path class="st10" d="M100.3,59.5c-3.1,0.2-14.9,4.3-16.7,7.6c-2.6,4.4,16.8-2.7,17.9-3.3C105.2,61.7,100.7,59.5,100.3,59.5z"/>
		<path class="st11" d="M96.7,111.1c-10.6-6.2-13.2-3.3-14.5,11.6c-0.9,10.6-24.1,32.4-26.4,43.3c-0.8,3.6,9.2,4.6,14.4,5
			c9.3,0.8,29.4-18.2,36.5-23.9c11.4-9.1,13.9-13.8,28.5-12.5c31.3,2.6,21.6-34.5,3.6-22.2c-12.4,8.4-17.3-12.2-26-12.5
			C98.4,99.5,100.2,112.4,96.7,111.1z"/>
		<g>
			<defs>
				<path id="SVGID_6_" d="M96.7,111.1c-10.6-6.2-13.2-3.3-14.5,11.6c-0.9,10.6-24.1,32.4-26.4,43.3c-0.8,3.6,9.2,4.6,14.4,5
					c9.3,0.8,29.4-18.2,36.5-23.9c11.4-9.1,13.9-13.8,28.5-12.5c31.3,2.6,21.6-34.5,3.6-22.2c-12.4,8.4-17.3-12.2-26-12.5
					C98.4,99.5,100.2,112.4,96.7,111.1z"/>
			</defs>
			<clipPath id="SVGID_7_">
				<use xlink:href="#SVGID_6_"  style="overflow:visible;"/>
			</clipPath>
			<g class="st12">
				<path class="st13" d="M113.7,96.3l-15,7.5c6.4-3.4,17.4-3.8,18.1,6.9c0.9,12.8,15.5,6.2,0.8,19.2
					c-13.9,12.3-43.9,47.1-63.4,32.6c-0.3-0.2-0.5-0.2-0.9-0.5l-3.1,10.4l30.3,6.5l83.1-50l-2.9-24.6L113.7,96.3z"/>
				<path class="st14" d="M105.6,152.6l-7.3,2c7.6-8.5,14-15.3,23-21.2c4.2-2.7,10.2-4,15.4-5.9c2.4-1,4.4-2.6,5.8-4.8
					c1.5-2.6,2.4-4.5,3.1-5.2c0.3-0.3,0.9,0.4,1.5,1.8c-1.2,2.7-2.8,5.1-4.9,7.2c-2.8,2.7-5.8,3-9.2,4c-6.3,1.8-13.9,5.5-17.7,10
					C113.5,142.8,106.5,152,105.6,152.6z"/>
			</g>
		</g>
		<path class="st14" d="M151.7,118.5c-1.3,4.9-11.9,2-11.5-3.7C141.6,116,147.8,119.3,151.7,118.5z"/>
		<path class="st15" d="M83.2,144.8c1.4-1.9,3.2-2.9,4.1-2.2s0.6,2.7-0.8,4.6s-3.2,2.9-4.1,2.3S81.9,146.7,83.2,144.8z"/>
		<path class="st15" d="M76,143.5c1.4-1.9,3.2-2.9,4.1-2.3s0.6,2.7-0.8,4.6s-3.2,2.9-4.1,2.2C74.3,147.4,74.6,145.4,76,143.5z"/>
	</g>
</g>
</svg>
