<svg id="图层_1" data-name="图层 1" xmlns="http://www.w3.org/2000/svg" xmlns:xlink="http://www.w3.org/1999/xlink" viewBox="0 0 257.3 245.11"><defs><style>.cls-1{fill:none;}.cls-2{fill:#95c9e1;}.cls-3{clip-path:url(#clip-path);}.cls-10,.cls-11,.cls-12,.cls-4,.cls-5,.cls-6,.cls-7,.cls-8,.cls-9{fill-rule:evenodd;}.cls-4{opacity:0.5;isolation:isolate;fill:url(#未命名的渐变_2);}.cls-5{fill:#373435;}.cls-6{fill:#fefefe;}.cls-7{fill:#fff;}.cls-8{fill:#020002;}.cls-9{fill:#e5e6e6;}.cls-10{fill:#d49028;}.cls-11{fill:#f2ab3e;}.cls-12{fill:#a3701e;}</style><clipPath id="clip-path"><circle class="cls-1" cx="128.18" cy="124.9" r="106.23"/></clipPath><linearGradient id="未命名的渐变_2" x1="135.49" y1="127.16" x2="257.49" y2="1.83" gradientTransform="matrix(1, 0, 0, -1, 0, 248)" gradientUnits="userSpaceOnUse"><stop offset="0" stop-color="#1e120d"/><stop offset="0.41" stop-color="#5a514d" stop-opacity="0.7"/><stop offset="1" stop-color="#e7e6e6" stop-opacity="0"/></linearGradient></defs><title>puguin-01</title><g id="Layer_1" data-name="Layer 1"><circle class="cls-2" cx="128.18" cy="124.9" r="106.23"/><g class="cls-3"><path class="cls-4" d="M236.46,128.34,165.4,59l25.25,13.55,99.57,99.57s-7,78.74-71.57,85.92-72.31-24-72.31-24L82.16,173.71l-1.25-87-13-12.57,29-11.27,23.83,22.54,59.8-1.74,54.59,53.73Z"/></g><path class="cls-5" d="M167.91,173.07l-7.7,13C215.89,168.92,198.82,77.84,126.53,75c-58,6.52-64.12,54.13-40.42,91h81.8Z"/><path class="cls-6" d="M72.54,141.08s3-53.31,61.61-48,77.59,96.55-7.71,97.73C98,190.25,74.32,179.59,72.54,141.08Z"/><path class="cls-5" d="M153.29,75.72c17.58-2.42,33.6,8.48,35.77,24.34s-10.3,30.67-27.87,33.09-33.6-8.48-35.78-24.34S135.71,78.14,153.29,75.72Z"/><path class="cls-5" d="M97,76.28C80.12,74,64.77,84.41,62.69,99.6S72.55,129,89.4,131.31s32.19-8.12,34.28-23.32S113.81,78.6,97,76.28Z"/><path class="cls-7" d="M150.21,81.35c15.86-2.18,30.31,7.65,32.28,22S173.2,131,157.34,133.16s-30.31-7.64-32.28-22S134.35,83.53,150.21,81.35Z"/><path class="cls-8" d="M157.47,99.26A16.11,16.11,0,1,1,141,115h0a16.1,16.1,0,0,1,16.45-15.74Z"/><path class="cls-7" d="M149.74,107.58a3.7,3.7,0,1,1,3.11,4.21,3.7,3.7,0,0,1-3.11-4.21Z"/><path class="cls-9" d="M120.33,114.88c-6.74,25.81,50.1,40,62.68,12.57C173.55,129.05,136.69,128.42,120.33,114.88Z"/><path class="cls-7" d="M96.14,80c-14.76-2-28.21,7.12-30,20.44s8.65,25.76,23.42,27.78,28.2-7.12,30-20.43S110.9,82.07,96.14,80Z"/><path class="cls-8" d="M94.71,96.9A15,15,0,1,0,110,111.6h0A15,15,0,0,0,94.71,96.9Z"/><path class="cls-7" d="M101.89,104.65A3.44,3.44,0,1,0,99,108.56h0a3.43,3.43,0,0,0,2.89-3.89Z"/><path class="cls-9" d="M122.36,110.62c5.29,24-39.38,37.23-49.26,11.7C80.53,123.81,109.51,123.22,122.36,110.62Z"/><path class="cls-5" d="M172,56.22c4.81,2.06,21,15.43,22.08,21.61,1.49,8.49-24.93-14-26.35-15.57C162.92,57,171.38,55.94,172,56.22Z"/><path class="cls-5" d="M93.93,60.82c-4.75.26-22.72,6.6-25.57,11.53-3.91,6.78,25.63-4.16,27.33-5C101.43,64.29,94.54,60.78,93.93,60.82Z"/><path class="cls-10" d="M115.57,127.56c-10.7,4.8-26.25,41.9-18.88,44.71,3.45,1.31,16.89-2.25,31.48-25.24,6.63-10.44,8.9-17.22-9.18-19.94A6.78,6.78,0,0,0,115.57,127.56Z"/><path class="cls-5" d="M113.07,132.18c-8.21,3.68-20,33.41-14.41,34.42,2.49.46,16.41-9.65,26.26-24.62,4.92-7.47,4.39-8.1-9.27-10.16A5.05,5.05,0,0,0,113.07,132.18Z"/><path class="cls-11" d="M111,119.77c-29.68,5.7-76.26,68.86,3.64,23.72,7.68-4.33,15-8,15.13-12.29C130,125.88,117.89,118.45,111,119.77Z"/><path class="cls-12" d="M88.14,143.16c1.18-1.65,2.78-2.52,3.57-1.95s.49,2.36-.69,4-2.77,2.52-3.57,1.95S87,144.81,88.14,143.16Z"/><path class="cls-12" d="M81.87,142c1.18-1.65,2.78-2.52,3.57-1.95s.49,2.36-.69,4-2.78,2.52-3.57,2S80.69,143.69,81.87,142Z"/></g></svg>