<svg id="图层_1" data-name="图层 1" xmlns="http://www.w3.org/2000/svg" xmlns:xlink="http://www.w3.org/1999/xlink" viewBox="0 0 243.57 240.51"><defs><style>.cls-1{fill:none;}.cls-2{fill:#fad021;}.cls-3{clip-path:url(#clip-path);}.cls-10,.cls-11,.cls-13,.cls-14,.cls-15,.cls-16,.cls-17,.cls-18,.cls-4,.cls-5,.cls-6,.cls-7,.cls-8{fill-rule:evenodd;}.cls-4{opacity:0.5;isolation:isolate;fill:url(#未命名的渐变);}.cls-5{fill:#fefefe;}.cls-6{fill:#f4c7d9;}.cls-7{fill:#a05083;}.cls-8{fill:#79335f;}.cls-9{clip-path:url(#clip-path-2);}.cls-10{fill:#633050;}.cls-11{fill:#b6749d;}.cls-12{clip-path:url(#clip-path-3);}.cls-13{fill:#c987b0;}.cls-14{fill:#bcbebf;}.cls-15{fill:#e5e6e6;}.cls-16{fill:#fff;}.cls-17{fill:#020002;}.cls-18{fill:#ab628f;}</style><clipPath id="clip-path"><circle class="cls-1" cx="117.79" cy="121.76" r="106.23"/></clipPath><linearGradient id="未命名的渐变" x1="138.01" y1="131.99" x2="220.71" y2="-12.11" gradientTransform="matrix(1, 0, 0, -1, 0, 242)" gradientUnits="userSpaceOnUse"><stop offset="0" stop-color="#1e120d"/><stop offset="0.41" stop-color="#5a514d" stop-opacity="0.7"/><stop offset="1" stop-color="#e7e6e6" stop-opacity="0"/></linearGradient><clipPath id="clip-path-2"><path class="cls-1" d="M75.78,102.1c.51-8.72,23,13.67,30.31-10.38,5.19-17.06,25-17.64,38.86-16.25,34.87,3.49,25.3,23.49,30.5,24,38.26,3.55,25.3,68.81-30.95,76.5-8.88,1.21-48.31,2.19-51.41-7.55-.22-.71-15,1.23-19.11-1.3-8-4.91-18.72-19.68-22.31-29.15-3.8-10,11,2.56,21.26-15.61C77.39,114.48,80,112.18,75.78,102.1Z"/></clipPath><clipPath id="clip-path-3"><path class="cls-1" d="M79.35,100c.51-8.72,16.13,19.65,23.45-4.41C108,78.53,127.8,78,141.65,79.35c34.87,3.49,25.3,23.49,30.5,24,38.26,3.55,25.31,68.81-31,76.5-8.88,1.21-48.31,2.19-51.41-7.56-.22-.69-15,1.24-19.11-1.29-8-4.91-18.72-19.68-22.31-29.15-3.8-10,11,2.55,21.27-15.61C74.1,118.36,83.56,110.09,79.35,100Z"/></clipPath></defs><title>rhinoceros-01</title><g id="Layer_1" data-name="Layer 1"><circle class="cls-2" cx="117.79" cy="121.76" r="106.23"/><g class="cls-3"><path class="cls-4" d="M133.67,64.73l24,23.16L169,59.49l99.57,99.57s4.22,88.67-60.38,95.85-74.74-25.71-74.74-25.71L69.35,168.85l17.43-44.56L57.2,61.67l48.07,45.89Z"/></g><path class="cls-5" d="M52.83,137.11c-24-8.23-11.34-96.78,4-72.52C69,83.77,62.19,81.75,79.72,98,98.2,115,65.56,140.9,52.83,137.11Z"/><path class="cls-6" d="M138.13,85.44c3-3.43-5.47-28.27-16.42-26.91-7.71.95-8.6,9.38-7.47,16.25,1.26,7.76,6.53,15.24,21.67,10.13C136.22,84.8,138,85.61,138.13,85.44Z"/><path class="cls-7" d="M134.15,85.13c3-3.42-5.47-28.26-16.43-26.9-7.7,1-8.59,9.37-7.47,16.25,1.27,7.76,6.54,15.24,21.68,10.13C132.24,84.5,134,85.31,134.15,85.13Z"/><path class="cls-8" d="M128.89,82.54c2-2.26-3.61-18.65-10.84-17.76-5.09.63-5.68,6.19-4.94,10.73.84,5.12,4.32,10.06,14.31,6.69C127.63,82.13,128.78,82.66,128.89,82.54Z"/><path class="cls-6" d="M75.78,102.1c.51-8.72,23,13.67,30.31-10.38,5.19-17.06,25-17.64,38.86-16.25,34.87,3.49,25.3,23.49,30.5,24,38.26,3.55,25.3,68.81-30.95,76.5-8.88,1.21-48.31,2.19-51.41-7.55-.22-.71-15,1.23-19.11-1.3-8-4.91-18.72-19.68-22.31-29.15-3.8-10,11,2.56,21.26-15.61C77.39,114.48,80,112.18,75.78,102.1Z"/><g class="cls-9"><path class="cls-10" d="M159.66,133.57c-13.6,23.75-43.85,36.08-71.29,36.08l1.24-1.27c25.66-1.24,53.24-11.78,67.46-36.59Z"/></g><path class="cls-11" d="M79.35,100c.51-8.72,16.13,19.65,23.45-4.41C108,78.53,127.8,78,141.65,79.35c34.87,3.49,25.3,23.49,30.5,24,38.26,3.55,25.31,68.81-31,76.5-8.88,1.21-48.31,2.19-51.41-7.56-.22-.69-15,1.24-19.11-1.29-8-4.91-18.72-19.68-22.31-29.15-3.8-10,11,2.55,21.27-15.61C74.1,118.36,83.56,110.09,79.35,100Z"/><g class="cls-12"><path class="cls-13" d="M76.79,98.3c.48-8,14.82,18.06,21.55-4,4.77-15.68,23-16.2,35.71-14.93,32,3.21,23.26,21.59,28,22,35.16,3.26,23.25,63.24-28.45,70.31-8.16,1.12-44.4,2-47.25-7-.2-.64-13.77,1.14-17.56-1.18-7.36-4.51-17.21-18.09-20.51-26.8-3.49-9.22,10.08,2.35,19.55-14.34C72,115.17,80.66,107.56,76.79,98.3Z"/><path class="cls-10" d="M156.37,137.46c-13.61,23.75-43.86,36.08-71.3,36.08l1.24-1.27c25.66-1.24,53.24-11.78,67.46-36.59Z"/></g><path class="cls-6" d="M141.9,89.22c-1-17.63,2-35.29,22.26-32.26,9.05,1.35,3.94,19.73,1,25.43-4.75,9.21-11,12.65-20.85,9C144,91.24,141.92,89.64,141.9,89.22Z"/><path class="cls-11" d="M139.29,90.12c-1-17.63,2-35.29,22.26-32.27,9,1.36,3.94,19.74,1,25.44-4.75,9.2-11,12.65-20.85,9C141.35,92.13,139.31,90.54,139.29,90.12Z"/><path class="cls-7" d="M147.52,83.07c-.63-11,1.27-21.95,13.84-20.07,5.64.84,2.46,12.27.63,15.81-3,5.73-6.83,7.88-13,5.59C148.81,84.32,147.54,83.33,147.52,83.07Z"/><path class="cls-14" d="M50.74,138.15c-24-8.23-8.21-95.73,4.29-71.22C65.34,87.16,58.28,79.4,75.81,95.6,94.29,112.68,63.47,142,50.74,138.15Z"/><path class="cls-15" d="M52,137.26c-19.7-6.76-6.74-78.61,3.52-58.48C64,95.39,58.16,89,72.56,102.32,87.73,116.34,62.42,140.37,52,137.26Z"/><path class="cls-16" d="M130.59,89.92A11,11,0,0,1,143.22,99c0,.09,0,.19,0,.29a11.6,11.6,0,0,1-9.87,12.76A11,11,0,0,1,120.76,103c0-.09,0-.19,0-.29A11.6,11.6,0,0,1,130.59,89.92Z"/><path class="cls-17" d="M130.49,98a6.91,6.91,0,1,1-6.44,7.35c0-.2,0-.41,0-.61A6.65,6.65,0,0,1,130.49,98Z"/><path class="cls-16" d="M127.46,101.51a1.47,1.47,0,0,1,1.6-1.34h0a1.57,1.57,0,0,1,1.23,1.8,1.48,1.48,0,0,1-1.61,1.33h0A1.56,1.56,0,0,1,127.46,101.51Z"/><path class="cls-11" d="M118.86,104.25c-2.64,11,19.67,17.09,24.61,5.37C139.75,110.3,125.28,110,118.86,104.25Z"/><path class="cls-11" d="M145,98.78c2.91-11-19.26-17.64-24.46-6C124.27,92.15,138.73,92.81,145,98.78Z"/><path class="cls-16" d="M108.71,89.09A10.21,10.21,0,0,0,97,97.49c0,.11,0,.22,0,.33a10.8,10.8,0,0,0,9.19,11.88,10.21,10.21,0,0,0,11.74-8.4c0-.1,0-.2.05-.3A10.79,10.79,0,0,0,108.71,89.09Z"/><path class="cls-17" d="M108.81,96.57a6.43,6.43,0,1,0,6,6.84c0-.19,0-.38,0-.57a6.12,6.12,0,0,0-6-6.27Z"/><path class="cls-16" d="M111.63,99.88a1.37,1.37,0,0,0-1.48-1.24h-.05a1.46,1.46,0,0,0-1.14,1.67,1.37,1.37,0,0,0,1.48,1.24h0A1.46,1.46,0,0,0,111.63,99.88Z"/><path class="cls-11" d="M119.66,102.43c2.08,10.26-15.46,15.91-19.33,5C103.24,108.06,114.62,107.81,119.66,102.43Z"/><path class="cls-11" d="M95.29,97.33c-2.7-10.19,17.93-16.4,22.77-5.63C114.59,91.16,101.14,91.79,95.29,97.33Z"/><path class="cls-10" d="M135.27,80.5c2.46,1.25,10.61,9.06,11.07,12.56.63,4.81-12.67-8.33-13.38-9.24C130.57,80.77,135,80.34,135.27,80.5Z"/><path class="cls-10" d="M109.81,80.93c-2.49.45-11.6,5.23-12.81,8.24-1.67,4.14,13.27-4,14.11-4.63C114,82.45,110.13,80.86,109.81,80.93Z"/><path class="cls-10" d="M151.3,126.72c-4.76,5.28,6,16.53,12.25,11.66C161.26,137.46,153.2,132.23,151.3,126.72Z"/><path class="cls-13" d="M120,89.26c-5.89,6.06-4.66,16.32-22.09,16.28-8,0-10.33,12.6,16.32,11.67C120.25,117,121.7,93.09,120,89.26Z"/><path class="cls-18" d="M52.74,142.53c2.22,3.78,11.17,3.58,18.58-.34C83.21,135.9,96,115.65,85.91,104.42,88.46,124,71.22,144.9,52.74,142.53Z"/></g></svg>